name ../AP_Laxity/ap_30.mot
datacolumns   7
datarows 41
range   21.00000000 21.40000000
cursor 1.0 1.0 0.0
keys m_key
wrap
enforce_loops no
enforce_constraints no
calc_derivatives -1.000000
event_color 0.000000 0.000000 0.000000
endheader
            time femur_r_force_vx femur_r_force_vy femur_r_force_vz femur_r_force_px femur_r_force_py femur_r_force_pz 
     21.00000000      76.30385527     -44.05405138       0.00000000      -0.03798529      -0.50443412       0.00000000 
     21.01000000      76.45521033     -44.14143627       0.00000000      -0.03798529      -0.50443412       0.00000000 
     21.02000000      76.60559270     -44.22825957       0.00000000      -0.03798529      -0.50443412       0.00000000 
     21.03000000      76.75499795     -44.31451873       0.00000000      -0.03798529      -0.50443412       0.00000000 
     21.04000000      76.90342172     -44.40021123       0.00000000      -0.03798529      -0.50443412       0.00000000 
     21.05000000      77.05085963     -44.48533455       0.00000000      -0.03798529      -0.50443412       0.00000000 
     21.06000000      77.19730738     -44.56988619       0.00000000      -0.03798529      -0.50443412       0.00000000 
     21.07000000      77.34276065     -44.65386368       0.00000000      -0.03798529      -0.50443412       0.00000000 
     21.08000000      77.48721519     -44.73726455       0.00000000      -0.03798529      -0.50443412       0.00000000 
     21.09000000      77.63066675     -44.82008634       0.00000000      -0.03798529      -0.50443412       0.00000000 
     21.10000000      77.77311112     -44.90232664       0.00000000      -0.03798529      -0.50443412       0.00000000 
     21.11000000      77.91454414     -44.98398303       0.00000000      -0.03798529      -0.50443412       0.00000000 
     21.12000000      78.05496164     -45.06505311       0.00000000      -0.03798529      -0.50443412       0.00000000 
     21.13000000      78.19435950     -45.14553451       0.00000000      -0.03798529      -0.50443412       0.00000000 
     21.14000000      78.33273365     -45.22542486       0.00000000      -0.03798529      -0.50443412       0.00000000 
     21.15000000      78.47008001     -45.30472182       0.00000000      -0.03798529      -0.50443412       0.00000000 
     21.16000000      78.60639457     -45.38342306       0.00000000      -0.03798529      -0.50443412       0.00000000 
     21.17000000      78.74167331     -45.46152628       0.00000000      -0.03798529      -0.50443412       0.00000000 
     21.18000000      78.87591227     -45.53902918       0.00000000      -0.03798529      -0.50443412       0.00000000 
     21.19000000      79.00910751     -45.61592949       0.00000000      -0.03798529      -0.50443412       0.00000000 
     21.20000000      79.14125513     -45.69222495       0.00000000      -0.03798529      -0.50443412       0.00000000 
     21.21000000      79.27235125     -45.76791333       0.00000000      -0.03798529      -0.50443412       0.00000000 
     21.22000000      79.40239201     -45.84299240       0.00000000      -0.03798529      -0.50443412       0.00000000 
     21.23000000      79.53137361     -45.91745996       0.00000000      -0.03798529      -0.50443412       0.00000000 
     21.24000000      79.65929226     -45.99131383       0.00000000      -0.03798529      -0.50443412       0.00000000 
     21.25000000      79.78614422     -46.06455184       0.00000000      -0.03798529      -0.50443412       0.00000000 
     21.26000000      79.91192574     -46.13717184       0.00000000      -0.03798529      -0.50443412       0.00000000 
     21.27000000      80.03663316     -46.20917170       0.00000000      -0.03798529      -0.50443412       0.00000000 
     21.28000000      80.16026280     -46.28054931       0.00000000      -0.03798529      -0.50443412       0.00000000 
     21.29000000      80.28281104     -46.35130257       0.00000000      -0.03798529      -0.50443412       0.00000000 
     21.30000000      80.40427429     -46.42142940       0.00000000      -0.03798529      -0.50443412       0.00000000 
     21.31000000      80.52464898     -46.49092776       0.00000000      -0.03798529      -0.50443412       0.00000000 
     21.32000000      80.64393158     -46.55979560       0.00000000      -0.03798529      -0.50443412       0.00000000 
     21.33000000      80.76211858     -46.62803090       0.00000000      -0.03798529      -0.50443412       0.00000000 
     21.34000000      80.87920654     -46.69563167       0.00000000      -0.03798529      -0.50443412       0.00000000 
     21.35000000      80.99519200     -46.76259590       0.00000000      -0.03798529      -0.50443412       0.00000000 
     21.36000000      81.11007156     -46.82892165       0.00000000      -0.03798529      -0.50443412       0.00000000 
     21.37000000      81.22384186     -46.89460696       0.00000000      -0.03798529      -0.50443412       0.00000000 
     21.38000000      81.33649955     -46.95964991       0.00000000      -0.03798529      -0.50443412       0.00000000 
     21.39000000      81.44804134     -47.02404859       0.00000000      -0.03798529      -0.50443412       0.00000000 
     21.40000000      81.55846394     -47.08780111       0.00000000      -0.03798529      -0.50443412       0.00000000 
